<?xml version="1.0" encoding="utf-8"?>
<!-- Generator: Adobe Illustrator 26.4.1, SVG Export Plug-In . SVG Version: 6.00 Build 0)  -->
<svg version="1.1" id="Layer_1" xmlns="http://www.w3.org/2000/svg" xmlns:xlink="http://www.w3.org/1999/xlink" x="0px" y="0px"
	 viewBox="0 0 500 334" style="enable-background:new 0 0 500 334;" xml:space="preserve">
<style type="text/css">
	.st0{fill:#1D1D1B;}
	.st1{fill:#1AAF54;}
	.st2{fill:#1072BD;}
</style>
<g>
	<path class="st0" d="M227.69,268.52c-11.94,11.59-24.53,20.54-39.51,25.44c-32.56,10.64-63.82,6.55-93.05-10.59
		c-34.77-20.38-54.59-51.67-62-90.77c-6.55-34.54-1.49-67.51,17.34-97.57c20.75-33.11,50.43-53.93,89.38-59.28
		c33.89-4.66,66.07,0.75,93.97,22.47c10.69,8.33,19.21,18.52,25.8,30.36c1.13,2.03,1.29,3.24-0.92,4.82
		c-11.06,7.95-22.02,16.05-32.9,24.24c-2.21,1.67-3,1.72-4.51-0.93c-17.14-30.11-52.76-44.36-85.64-34.11
		c-19.71,6.14-33.86,19.32-42.53,37.67c-17.12,36.24-16.15,71.94,7.98,104.75c23.47,31.92,65.25,38.58,99.5,17.5
		c9.67-5.95,17.99-13.45,25.51-21.9c1.16-1.3,1.67-2.62,1.62-4.36c-0.11-4.12-0.25-8.27,0.04-12.38c0.21-3.01-0.99-3.42-3.63-3.4
		c-15.14,0.12-30.29-0.05-45.43,0.15c-3.25,0.04-3.84-0.93-3.79-3.93c0.2-10.13,0.16-20.26,0.02-30.39
		c-0.03-2.45,0.64-3.1,3.09-3.09c29.54,0.09,59.07,0.08,88.61,0.01c2.37-0.01,3.17,0.51,3.17,3.05c-0.08,42.77-0.08,85.54,0,128.32
		c0,2.61-0.67,3.36-3.31,3.32c-11.76-0.14-23.53-0.15-35.29,0c-2.73,0.03-3.66-0.56-3.59-3.47
		C227.83,286.11,227.69,277.76,227.69,268.52z"/>
	<path class="st1" d="M469.52,167.25c0,42.14-0.05,84.29,0.08,126.43c0.01,3.49-0.96,4.31-4.34,4.27
		c-14.51-0.19-29.03-0.15-43.55-0.02c-2.68,0.02-3.32-0.79-3.32-3.38c0.06-85.04,0.07-170.07,0-255.11c0-2.69,0.83-3.32,3.39-3.3
		c14.64,0.11,29.28,0.16,43.92-0.02c3.19-0.04,3.89,0.91,3.88,3.96C469.48,82.46,469.52,124.85,469.52,167.25z"/>
	<path class="st2" d="M313.18,167.04c0-42.25,0.03-84.51-0.07-126.76c-0.01-3.13,0.52-4.25,4.01-4.19
		c14.51,0.23,29.02,0.15,43.53,0.05c2.58-0.02,3.68,0.32,3.67,3.36c-0.09,85.01-0.09,170.01,0,255.02c0,2.99-1,3.42-3.63,3.4
		c-14.64-0.12-29.27-0.15-43.91,0.02c-3.05,0.04-3.67-0.9-3.66-3.76C313.21,251.8,313.18,209.42,313.18,167.04z"/>
</g>
</svg>
