<?xml version="1.0" encoding="utf-8"?>
<!-- Generator: Adobe Illustrator 26.4.1, SVG Export Plug-In . SVG Version: 6.00 Build 0)  -->
<svg version="1.1" xmlns="http://www.w3.org/2000/svg" xmlns:xlink="http://www.w3.org/1999/xlink" x="0px" y="0px"
	 viewBox="0 0 600 600" style="enable-background:new 0 0 600 600;" xml:space="preserve">
<style type="text/css">
	.st0{fill:#FFFFFF;}
</style>
<g id="Layer_1">
</g>
<g id="Layer_2">
	<g>
		<path class="st0" d="M8.11,8.1v583.8h583.78V8.1H8.11z M284.56,532.51H61.22V309.17h223.34V532.51z M179.61,290.82
			c-61.67,0-111.67-50-111.67-111.67c0-61.68,50-111.67,111.67-111.67c61.67,0,111.68,49.99,111.68,111.67
			C291.28,240.82,241.27,290.82,179.61,290.82z M532.06,532.51H308.73V309.17h223.34V532.51z M427.11,290.82
			c-61.67,0-111.67-50-111.67-111.67c0-61.68,50-111.67,111.67-111.67c61.67,0,111.67,49.99,111.67,111.67
			C538.79,240.82,488.79,290.82,427.11,290.82z"/>
	</g>
</g>
<g id="Layer_3">
</g>
<g id="Layer_4">
</g>
<g id="Layer_5">
</g>
</svg>
