<?xml version="1.0" encoding="UTF-8"?><svg id="Capa_1" xmlns="http://www.w3.org/2000/svg" viewBox="0 0 429.56 98.8"><defs><style>.cls-1{fill:#fff;}.cls-2{fill:#302e2d;}.cls-3{fill:#1e1e1d;}.cls-4{fill:#1872b9;}.cls-5{fill:#20201e;}.cls-6{fill:#292827;}.cls-7{fill:#1e1f1d;}.cls-8{fill:#1f1f1d;}.cls-9{fill:#222220;}.cls-10{fill:#242322;}.cls-11{fill:#1e1e1c;}.cls-12{fill:#232321;}.cls-13{fill:#262523;}.cls-14{fill:#20201f;}.cls-15{fill:#21211f;}.cls-16{fill:#282725;}.cls-17{fill:#2fab56;}.cls-18{fill:#1f201e;}</style></defs><path class="cls-11" d="m62.96,85.63c-4.74,4.63-9.96,7.88-16.24,9.14-9.89,1.99-19.13.17-27.54-5.31C8.93,82.79,3.01,73.15.83,61.24c-2.27-12.42.02-23.96,7.67-34.15,6.99-9.32,16.33-14.89,27.97-16.06,9.46-.95,18.51.53,26.59,6.02,4.3,2.92,7.7,6.66,10.2,11.22.32.58.34.91-.26,1.34-3.58,2.6-7.14,5.23-10.69,7.88-.65.49-.9.52-1.35-.3-5.8-10.46-19.08-14.93-29.84-9.99-6.34,2.91-10.31,8.03-12.6,14.47-3.19,8.98-2.86,17.85,1.61,26.35,6.99,13.29,22.93,17.06,35.37,8.48,2.61-1.8,4.94-3.9,7-6.31.2-.24.45-.42.45-.8-.02-1.68,0-3.35,0-5.03,0-.79-.61-.47-.96-.47-4.79-.02-9.59-.05-14.38.02-1.16.02-1.54-.2-1.5-1.45.11-3.19.06-6.39.02-9.58-.01-.8.23-.98,1-.97,9.43.03,18.86.03,28.28,0,.88,0,1.03.29,1.03,1.09-.02,13.62-.02,27.23,0,40.85,0,.85-.15,1.17-1.1,1.16-3.75-.06-7.51-.07-11.27,0-1.02.02-1.16-.35-1.15-1.23.05-2.62.02-5.25.02-8.13Z"/><path class="cls-4" d="m90.27,53.15c0-13.5.01-27-.02-40.5,0-.97.19-1.28,1.22-1.27,4.63.06,9.27.05,13.9,0,.87,0,1.23.12,1.23,1.13-.03,27.08-.03,54.16,0,81.23,0,.99-.33,1.17-1.22,1.16-4.63-.04-9.27-.05-13.9,0-1.04.01-1.22-.33-1.22-1.29.03-13.5.02-27,.02-40.5Z"/><path class="cls-17" d="m140.18,53.23c0,13.46-.01,26.92.02,40.38,0,1.02-.2,1.35-1.3,1.34-4.63-.07-9.27-.05-13.9,0-.89,0-1.15-.22-1.15-1.13.02-27.12.02-54.23,0-81.35,0-.85.23-1.06,1.07-1.06,4.67.04,9.35.05,14.02,0,.98-.01,1.26.21,1.26,1.23-.04,13.54-.02,27.08-.02,40.62Z"/><path class="cls-7" d="m405.53,61.09c0,3.21,0,6.42,0,9.64,0,.42,0,.84,0,1.26,0,1.57-.05,1.59-1.63,1.48-.49-.04-.76-.13-.76-.71.02-5.28.01-10.56,0-15.85,0-.37.07-.74.53-.65.75.14,1.66-.49,2.23.56,1.31,2.42,2.67,4.8,4.01,7.2.56,1.01,1.14,2.01,1.8,3.18,1.91-3.42,3.73-6.67,5.55-9.92.53-.95,1.57-1.33,2.58-1.04.41.12.37.39.37.67,0,5.28,0,10.56,0,15.85,0,1.16-.87.58-1.37.69-.71.16-.91-.18-.91-.89.03-3.89.02-7.79.02-12.08-1.04,1.83-1.9,3.35-2.75,4.87-.79,1.42-1.57,2.84-2.37,4.26-.24.43-.46.84-1.11.85-.71.01-.9-.44-1.17-.92-1.59-2.83-3.19-5.65-4.78-8.47-.09,0-.17.01-.26.02Z"/><path class="cls-8" d="m381.48,69.41c0-4.24.03-8.18-.02-12.11-.01-.9.26-1.1,1.12-1.1.89,0,1.21.16,1.2,1.15-.06,4.9-.01,9.81-.05,14.71,0,.45.44,1.22-.39,1.35-.69.11-1.44.22-2.04-.55-2.63-3.37-5.32-6.68-7.99-10.02-.49-.62-.99-1.23-1.49-1.87-.46.27-.24.69-.25,1.01-.02,3.44-.05,6.88.01,10.31.02.99-.32,1.17-1.22,1.17-.92,0-1.21-.22-1.2-1.19.05-4.9.02-9.81.04-14.71,0-.44-.34-1.15.34-1.29.69-.14,1.38-.2,1.99.58,2.79,3.61,5.67,7.15,8.52,10.71.42.52.82,1.04,1.43,1.82Z"/><path class="cls-7" d="m167.81,43.04c-2.41,2.26-5,2.99-7.86,1.76-3.13-1.34-4.91-3.86-5.2-7.24-.39-4.61,1.91-8.18,5.81-9.34,3.13-.93,6.44.12,8.15,2.59.37.53.72,1.01-.15,1.46-.61.31-.96.9-1.65-.1-1.72-2.5-5.11-2.86-7.5-.97-3.67,2.91-3.06,9.47,1.08,11.46,2.4,1.15,5.68.26,7.12-1.96.44-.68.28-1.5.13-2.18-.09-.41-.83-.14-1.27-.17-.46-.04-.92-.02-1.38,0-.61.02-1.09.08-1.08-.86.01-.86.36-.93,1.05-.91,1.34.04,2.68.03,4.03,0,.54-.01.73.16.73.72-.02,2.39-.04,4.78,0,7.17.02.87-.55.67-1,.66-.43-.01-1.09.28-1-.63.04-.41,0-.83,0-1.45Z"/><path class="cls-7" d="m164.82,62.9c0-2.13.03-4.01-.02-5.88-.02-.88.07-1.33,1.18-1.34,1.09,0,1.09.47,1.08,1.27-.03,4.32-.02,8.63,0,12.95,0,.49-.09.98.31,1.42.56.62.62,1.95.17,2.19-.67.36-1.84-.08-2.26-.88-.15-.28-.22-.6-.33-.91-2.91,2.44-5.74,2.63-8.1.56-2.87-2.51-3.06-7.4-.36-10.1,1.97-1.96,5.34-2.62,8.33.71Z"/><path class="cls-7" d="m196.76,42.96c0,2.29-.03,4.29.02,6.29.02.79-.05,1.22-1.04,1.17-.86-.04-1.25-.13-1.24-1.15.06-5.2.04-10.39,0-15.59,0-.84.16-1.14,1.08-1.16.99-.03.97.46.93,1.13-.02.25,0,.5,0,1.01,1.37-1.5,2.85-2.48,4.8-2.35,1.9.13,3.42.98,4.5,2.56,2.02,2.94,1.54,7.24-1.01,9.35-2.03,1.68-5.69,1.84-8.04-1.27Z"/><path class="cls-3" d="m365.88,62.12c-.13,1.95.26,4.25-.47,6.51-1.15,3.57-3.63,5.17-7.81,4.92-2.95-.18-5.49-2.46-6.03-5.62-.63-3.7-.2-7.44-.26-11.16-.02-1.08.97-.37,1.47-.52.58-.17.78.14.78.74-.03,2.68,0,5.37-.02,8.05,0,.93.15,1.84.39,2.72.66,2.47,2.49,3.84,4.82,3.71,2.52-.14,4.21-1.7,4.62-4.27.52-3.25.18-6.52.23-9.78.01-.88.13-1.25,1.14-1.23.94.01,1.22.24,1.16,1.19-.09,1.46-.02,2.93-.02,4.74Z"/><path class="cls-8" d="m322.06,63c1.18-1.27,2.38-2.05,3.93-2.32,2.88-.5,4.78.89,4.88,3.83.09,2.72-.01,5.45.05,8.17.02,1.03-.64.74-1.17.77-.58.03-1.16.15-1.13-.83.06-2.18.02-4.36.02-6.54,0-2.23-.75-3.37-2.25-3.42-1.96-.07-4.09,1.73-4.14,3.58-.05,2.01-.06,4.03,0,6.03.03.94-.24,1.23-1.19,1.21-.86-.02-1.26-.14-1.24-1.16.07-3.48.05-6.96,0-10.44-.01-.84.16-1.19,1.09-1.16.83.02,1.29.16,1.14,1.1-.05.31,0,.64,0,1.17Z"/><path class="cls-8" d="m248.32,34.77c1.17-1.27,2.3-1.97,3.7-2.29,2.88-.66,4.95.73,5.09,3.69.13,2.76.02,5.53.05,8.3.02,1.1-.77.6-1.23.65-.49.06-1.08.23-1.06-.71.06-2.35.04-4.69.01-7.04-.02-1.77-.88-2.9-2.21-3.02-1.86-.18-4.14,1.84-4.18,3.75-.04,2.01-.07,4.03.02,6.04.05,1.02-.43,1.06-1.19,1.02-.66-.04-1.27.15-1.24-.96.08-3.52.06-7.04,0-10.56-.01-.93.31-1.08,1.14-1.09.89-.02,1.23.24,1.09,1.12-.04.27,0,.55,0,1.11Z"/><path class="cls-8" d="m367.88,34.91c1.45-1.69,3.04-2.56,5.03-2.59,1.94-.03,3.4,1.08,3.72,3,.51,3.07.28,6.18.25,9.27-.01,1.06-1.03.39-1.57.54-.58.16-.79-.14-.78-.75.03-2.05.03-4.1,0-6.15,0-.87,0-1.75-.38-2.57-.5-1.05-1.35-1.41-2.45-1.18-2.38.51-3.59,2-3.59,4.36,0,1.84-.05,3.69.02,5.53.04,1.02-.62.77-1.15.77-.53,0-1.15.24-1.13-.77.06-3.68.05-7.37,0-11.05-.01-.93.54-.71,1.05-.74.59-.03,1.11-.05.99.81-.06.41,0,.83,0,1.54Z"/><path class="cls-8" d="m189.44,43.03c-1.3,1.45-2.74,2.4-4.7,2.38-2.75-.03-4.19-1.27-4.3-4.07-.11-2.68,0-5.36-.05-8.04-.02-.94.58-.75,1.07-.71.48.04,1.23-.38,1.21.7-.05,2.22-.03,4.44,0,6.66.02,1.37.2,2.74,1.64,3.37,1.19.53,3.03-.14,4.05-1.34.58-.68.93-1.42.9-2.38-.07-2.05.04-4.11-.04-6.15-.05-1.09.62-.85,1.21-.87.6-.02,1.11-.11,1.08.85-.08,2.3-.07,4.61,0,6.91.03,1.05-.42,2.2.64,3.16.25.22.53,1.45-.37,1.77-.84.29-1.67.04-2.04-.92-.14-.37-.18-.79-.28-1.3Z"/><path class="cls-8" d="m197.51,63.25c.83-1.03,1.59-1.67,2.52-2.1,3.58-1.66,6.33-.08,6.49,3.85.11,2.55,0,5.11.03,7.66.02,1.12-.76.72-1.3.79-.64.09-.96-.05-.97-.84-.05-2.59.27-5.19-.2-7.76-.34-1.9-1.53-2.63-3.34-2.01-1.69.57-3.17,2.31-3.02,4.14.15,1.87-.02,3.77.05,5.65.04.97-.55.85-1.13.83-.54-.02-1.18.22-1.16-.79.05-3.68.05-7.37,0-11.05-.01-.96.52-.81,1.11-.85.67-.05,1.03.11.93.87-.06.44-.01.9-.01,1.63Z"/><path class="cls-8" d="m240.24,73.72c-1.9-.07-3.57-.45-5.12-1.4-.69-.43-.52-.76-.17-1.26.31-.45.46-.9,1.19-.38,1.46,1.03,3.1,1.54,4.94,1.17.94-.19,1.68-.58,1.81-1.62.14-1.13-.68-1.53-1.54-1.8-1.34-.42-2.73-.71-4.05-1.17-2.42-.85-2.95-3.59-1.09-5.4,1.83-1.77,6.42-1.67,8.26.13.6.59-.1.77-.24,1.09-.17.38-.37.65-.94.27-1.39-.92-2.9-1.45-4.6-.87-.84.29-1.37.8-1.39,1.71-.03.95.72,1.29,1.41,1.53,1.22.41,2.49.65,3.71,1.05,2.24.73,2.8,1.52,2.68,3.58-.09,1.5-1.44,2.86-3.23,3.19-.57.11-1.16.13-1.61.18Z"/><path class="cls-8" d="m424.43,45.38c-1.72.13-3.28-.37-4.76-1.2-.64-.36-.82-.68-.36-1.36.4-.59.66-.81,1.33-.31,1.36,1.03,2.95,1.32,4.61,1.12,1.01-.12,1.88-.5,2.03-1.67.15-1.16-.72-1.52-1.55-1.8-1.26-.41-2.55-.7-3.83-1.08-1.27-.37-2.32-1.01-2.4-2.51-.08-1.54.49-2.76,1.88-3.54,2.07-1.16,5.39-.91,7.25.51.48.37.54.7.12,1.12-.31.31-.43.91-1.15.4-1.42-1-3.02-1.36-4.73-.76-.74.26-1.14.76-1.17,1.59-.03.89.49,1.29,1.22,1.5,1.23.36,2.48.64,3.71,1.02,2.2.68,3.1,1.84,2.9,3.62-.2,1.75-1.83,3.18-3.84,3.33-.42.03-.84,0-1.25,0Z"/><path class="cls-8" d="m298.91,70.44c-1.29,2.58-3.82,3.7-6.92,3.12-2.4-.45-4.63-2.85-4.88-5.26-.45-4.24,1.57-7.08,5.63-7.69,2.25-.34,4.19.46,5.62,2.29.38.49.58.89-.31,1.13-.87.23-1.44.36-2.22-.46-2.05-2.16-5.48-.89-6.33,2.29-.79,2.94,1.35,6.4,4.72,5.74.59-.12,1.1-.34,1.57-.71q1.33-1.04,3.12-.45Z"/><path class="cls-8" d="m314.4,45.39c-1.69.14-3.28-.38-4.79-1.27-.6-.35-.68-.66-.26-1.27.4-.57.63-.84,1.31-.33,1.36,1.02,2.94,1.33,4.62,1.13,1.01-.12,1.88-.49,2.04-1.66.16-1.16-.72-1.53-1.55-1.81-1.3-.43-2.64-.7-3.95-1.1-1.16-.36-2.15-.99-2.28-2.35-.13-1.38.32-2.55,1.46-3.4,1.99-1.47,5.92-1.28,7.77.33.46.4.36.7.02,1.03-.31.3-.45.93-1.15.4-1.1-.84-2.4-1.13-3.77-1-.77.07-1.48.31-1.92,1-.56.88-.2,1.9.89,2.28,1.25.43,2.56.69,3.82,1.08,2.29.71,3.14,1.85,2.89,3.73-.23,1.72-1.94,3.13-3.93,3.22-.38.02-.75,0-1.21,0Z"/><path class="cls-8" d="m327.04,45.41c-2.22.26-4.8-1.37-5.86-3.91-1.01-2.42-.44-5.5,1.35-7.33,1.78-1.81,4.75-2.37,7.19-1.35.71.29,1.36.7,1.82,1.29.32.42,1.26.93.59,1.42-.56.41-1.48,1.12-2.37,0-.96-1.2-2.33-1.49-3.85-1-1.67.54-2.49,1.79-2.79,3.37-.26,1.38,0,2.72.85,3.92,1.41,1.96,4.24,2.2,5.89.47.57-.59,1.89-.68,2.48-.15.37.32.02.58-.13.81-1.2,1.79-2.95,2.48-5.17,2.46Z"/><path class="cls-8" d="m227.44,45.39c-1.68.12-3.23-.39-4.71-1.24-.62-.36-.82-.65-.32-1.31.41-.54.62-.86,1.33-.33,1.27.96,2.76,1.28,4.36,1.16,1.24-.1,2.29-.75,2.34-1.67.07-1.22-.87-1.59-1.82-1.88-1.19-.36-2.4-.65-3.59-1.02-1.15-.35-2.2-.82-2.36-2.24-.19-1.71.39-3.04,1.93-3.88,2.03-1.11,5.39-.76,7.24.67.51.39.37.66.05.99-.29.3-.37,1.03-1.11.48-1.11-.82-2.39-1.15-3.77-1.05-1.23.09-2.2.79-2.24,1.77-.05,1.16.84,1.51,1.75,1.76,1.08.3,2.18.52,3.25.86,2.2.71,3.05,1.79,2.85,3.52-.22,1.89-1.8,3.29-3.88,3.41-.42.03-.84,0-1.3,0Z"/><path class="cls-14" d="m247.7,67.25c0-1,0-2.01,0-3.01,0-.83.3-1.79-1.22-1.66-.72.06-.29-.78-.39-1.21-.11-.5.19-.69.65-.61.93.16,1.02-.36.97-1.08-.04-.58.06-1.18-.02-1.75-.16-1.11.24-1.47,1.37-1.4.8.05,1.01.32.95,1.05-.05.67.06,1.35-.03,2-.14,1.05.32,1.23,1.25,1.21.52-.01,1.32-.47,1.6.42.32,1.02-.02,1.4-1.14,1.42q-1.69.02-1.69,1.75c0,1.84-.03,3.68.01,5.52.03,1.46.71,1.87,2.14,1.46.48-.14,1.04-.7,1.36.41.29.99-.08,1.24-.84,1.5-.93.33-1.89.34-2.85.25-1.26-.13-2.04-1.1-2.12-2.52,0-.08,0-.17,0-.25,0-1.17,0-2.34,0-3.51Z"/><path class="cls-5" d="m260.54,38.95c0-1.26-.03-2.51.01-3.77.02-.61-.09-.98-.8-.86-.64.11-.88-.13-.85-.81.03-.61.02-1.1.84-.95.69.13.86-.23.81-.85-.04-.62-.01-1.25,0-1.88,0-1.59.17-1.72,1.69-1.53.42.05.6.2.6.61,0,.46,0,.92,0,1.38,0,2.11,0,2.16,2.13,2.26.81.04.69.48.73.98.04.57-.09.79-.74.82-2.12.08-2.12.12-2.12,2.27,0,1.59-.01,3.18,0,4.77.02,1.68.68,2.21,2.3,1.7.68-.21,1.01-.29,1.23.52.21.75.11,1.13-.69,1.37-.81.24-1.59.46-2.44.42-1.66-.09-2.63-1-2.69-2.67-.04-1.25,0-2.51,0-3.77Z"/><path class="cls-8" d="m214.18,71.26c1.23-3.27,2.43-6.23,3.43-9.25.38-1.15.98-1.34,2-1.26.55.05.64.21.45.69-1.5,3.82-3.01,7.63-4.5,11.45-.32.83-1.03.51-1.6.56-.55.05-1.06.05-1.32-.62-1.47-3.78-2.96-7.56-4.46-11.33-.2-.52-.12-.69.5-.76,1.16-.13,1.78.25,2.17,1.4,1,2.97,2.14,5.9,3.33,9.12Z"/><path class="cls-8" d="m354.3,35.65c0-2.35.04-4.7-.02-7.04-.03-.88.21-1.11,1.09-1.11.93,0,1.2.22,1.19,1.18-.06,4.23-.03,8.47-.02,12.7,0,1.69.31,1.97,1.96,1.77.45-.05.87-.12.83.55-.03.49.62,1.18-.37,1.39-.77.17-1.54.37-2.35.3-1.41-.12-2.3-1.02-2.31-2.44-.01-2.43,0-4.86,0-7.29Z"/><path class="cls-9" d="m342.11,64.88c0,2.55-.05,5.1.02,7.65.03,1.12-.65.91-1.3.93-.68.03-1.16.04-1.15-.94.05-5.1.06-10.2,0-15.3-.01-1.05.49-1,1.22-1,.73,0,1.26-.03,1.23,1.01-.07,2.55-.02,5.1-.02,7.65Z"/><path class="cls-12" d="m345.6,64.71c0-2.51.05-5.02-.02-7.53-.03-1.1.63-.92,1.29-.95.71-.03,1.15.02,1.14.97-.05,5.11-.06,10.21,0,15.32.01,1.13-.64.92-1.29.95-.71.04-1.17-.02-1.14-.97.07-2.59.02-5.19.02-7.78Z"/><path class="cls-15" d="m243.04,36.62c0,2.56-.05,5.12.02,7.67.04,1.22-.76.8-1.33.84-.61.04-1.19.2-1.18-.88.06-5.11.06-10.23,0-15.34-.01-1.19.74-.83,1.33-.87.63-.04,1.21-.14,1.18.9-.08,2.55-.03,5.11-.03,7.67Z"/><path class="cls-8" d="m192.23,64.76c0,2.6-.05,5.19.03,7.78.03,1.02-.51.92-1.16.92-.67,0-1.16.05-1.15-.95.06-5.11.06-10.21,0-15.32-.01-1.08.55-.94,1.24-.98.78-.05,1.09.14,1.07,1.01-.06,2.51-.02,5.02-.02,7.53Z"/><path class="cls-18" d="m174.33,35.03c1.05-1.47,2.11-2.35,3.62-2.54.37-.05.98-.31.9.38-.07.57.63,1.46-.52,1.7-.82.17-1.62.39-2.31.89-1.03.74-1.7,1.67-1.67,3.02.04,1.93-.06,3.86.04,5.78.06,1.07-.55.87-1.16.89-.67.02-1.16.06-1.13-.93.07-3.52.06-7.03,0-10.55-.01-.88.22-1.14,1.11-1.12.83.02,1.28.15,1.13,1.09-.06.36,0,.73,0,1.4Z"/><path class="cls-8" d="m394.71,34.92c1.16-1.41,2.21-2.31,3.72-2.45.43-.04.96-.13.86.51-.08.54.53,1.38-.54,1.6-.77.16-1.55.31-2.21.77-1.08.74-1.81,1.64-1.74,3.09.09,1.96-.04,3.93.04,5.9.05,1.13-.69.76-1.23.81-.59.04-1.09.12-1.08-.83.07-3.64.05-7.28,0-10.92-.01-.82.36-.86.97-.82.6.04,1.34-.2,1.21.87-.04.37,0,.75,0,1.49Z"/><path class="cls-8" d="m283.97,34.66c1.11-1.17,2.25-2.02,3.78-2.21.42-.05.96-.12.83.54-.11.54.54,1.38-.54,1.58-.78.14-1.54.34-2.21.78-1.09.73-1.82,1.65-1.77,3.08.07,1.96-.04,3.93.04,5.89.05,1.13-.68.78-1.22.81-.58.03-1.1.14-1.09-.83.07-3.59.06-7.19,0-10.78-.02-.92.37-.97,1.1-.98.76-.01,1.21.11,1.09,1-.05.36,0,.74,0,1.11Z"/><path class="cls-10" d="m300.72,67.06c0-1.8.06-3.6-.02-5.4-.05-1.04.56-.91,1.19-.91.61,0,1.24-.17,1.23.87-.05,3.64-.05,7.28,0,10.92.01,1.01-.55.93-1.2.91-.61-.02-1.27.18-1.23-.88.07-1.84.02-3.68.02-5.52Z"/><path class="cls-10" d="m360.62,38.83c0-1.8.06-3.6-.02-5.4-.05-1.08.62-.86,1.21-.86.61,0,1.23-.2,1.21.87-.06,3.64-.05,7.28,0,10.92.01,1.15-.76.73-1.28.77-.54.04-1.18.24-1.14-.78.07-1.84.02-3.68.02-5.52Z"/><path class="cls-8" d="m257.41,67.15c0,1.84-.05,3.68.02,5.52.04,1.02-.62.77-1.15.78-.56.01-1.16.18-1.14-.81.05-3.68.05-7.36,0-11.04-.02-1.1.67-.79,1.24-.83.63-.05,1.1-.05,1.06.87-.08,1.84-.02,3.68-.02,5.52Z"/><path class="cls-5" d="m403.12,38.98c0,1.8-.05,3.6.02,5.39.04,1.03-.62.76-1.14.76-.51,0-1.17.29-1.15-.75.05-3.68.05-7.35,0-11.03-.01-1.01.61-.78,1.14-.77.53,0,1.19-.25,1.15.77-.07,1.88-.02,3.76-.02,5.64Z"/><path class="cls-8" d="m336.68,38.95c0,1.76-.08,3.52.03,5.27.07,1.15-.62.87-1.24.93-.76.07-1.08-.1-1.07-.99.06-3.51.08-7.03,0-10.54-.03-1.1.48-1.03,1.26-1.09.95-.07,1.08.32,1.05,1.14-.06,1.75-.02,3.51-.02,5.27Z"/><path class="cls-5" d="m304.97,38.97c0-1.84.06-3.69-.02-5.53-.04-.91.41-.92,1.05-.87.58.04,1.25-.24,1.23.85-.06,3.64-.06,7.29,0,10.93.02,1.01-.59.8-1.14.79-.52-.01-1.19.28-1.14-.76.07-1.8.02-3.6.02-5.4Z"/><path class="cls-2" d="m300.74,57.16c-.12-.9-.1-1.47,1.14-1.49,1.32-.02,1.24.65,1.25,1.54,0,.86.06,1.47-1.19,1.47-1.29,0-1.34-.61-1.2-1.52Z"/><path class="cls-6" d="m362.96,28.97c.3,1.13-.21,1.31-1.21,1.37-1.28.08-1.12-.63-1.15-1.44-.03-.89,0-1.42,1.2-1.42,1.29,0,1.36.59,1.17,1.49Z"/><path class="cls-16" d="m255.16,57.02c-.19-.9.04-1.31,1.18-1.34,1.52-.05.98.93,1.07,1.64.1.82.05,1.34-1.11,1.35-1.4.02-1.17-.78-1.14-1.65Z"/><path class="cls-9" d="m403.1,28.94c.11.84.11,1.41-1.11,1.42-1.27.01-1.13-.63-1.13-1.44,0-.82-.1-1.44,1.15-1.44,1.26,0,1.19.63,1.1,1.46Z"/><path class="cls-5" d="m336.67,29.08c.17.84,0,1.22-1.09,1.28-1.44.08-1.11-.75-1.16-1.54-.05-.84,0-1.3,1.13-1.33,1.4-.04,1.16.75,1.12,1.59Z"/><path class="cls-9" d="m304.98,28.82c-.07-.74-.16-1.33,1.06-1.34,1.4-.02,1.13.75,1.18,1.57.06.9-.11,1.26-1.18,1.3-1.38.06-1.08-.75-1.07-1.53Z"/><path class="cls-13" d="m314.05,55.88c-.62.87-1.22,1.65-1.76,2.46-.46.69-1,.42-1.51.15-.71-.37-.04-.73.07-1.07.5-1.48,1.5-2.08,3.21-1.54Z"/><path class="cls-1" d="m164.82,67.25c0,2.87-1.27,4.39-3.68,4.41-2.33.03-4.17-1.96-4.17-4.49,0-2.52,1.79-4.65,3.93-4.67,2.28-.03,3.93,1.96,3.93,4.75Z"/><path class="cls-1" d="m196.76,38.79c0-2.75,1.51-4.49,3.87-4.47,2.15.02,4.1,2.14,4.16,4.52.06,2.42-1.81,4.57-4,4.57-2.46,0-4.03-1.79-4.03-4.62Z"/><path class="cls-7" d="m172.48,67.99c1.42.06,2.85.02,4.28.02s2.85-.05,4.27.02c.88.04,1.15-.23,1.13-1.12-.06-2.73-1.86-5.26-4.41-6.06-2.71-.85-5.54.07-7.23,2.36-1.63,2.21-1.63,5.64-.02,7.86,2.47,3.4,7.91,3.55,10.27.28.2-.28.61-.55.31-.97-.35-.49-1.71-.4-2.13.1-1.11,1.35-2.58,1.67-4.18,1.3-1.54-.36-2.46-1.48-2.93-2.97-.16-.51-.1-.86.62-.83Zm-.84-1.72c.5-3,2.27-3.82,4.11-3.99,1.7-.16,3.4,1.29,4.01,3.05.25.72.19.97-.63.96-2.47-.04-4.95-.01-7.49-.01Z"/><path class="cls-8" d="m272.01,61.88c0-.66.09-1.19-.92-1.15-.87.03-1.23.25-1.09,1.13.04.27,0,.55,0,.91-3.38-2.78-6.45-2.91-8.69-.45-2.36,2.6-2.36,6.99,0,9.48,2.31,2.44,5.34,2.41,8.43-.22,0,.72,0,1.26,0,1.8-.02,1.62-1.05,3.05-2.6,3.42-2.07.49-4.02.19-5.49-1.45-.6-.67-.83-.27-1.25.05-.5.38-.58.69-.13,1.21,1.63,1.87,3.76,2.42,6.1,2.19,3.45-.33,5.86-2.47,5.67-6.12-.18-3.59-.05-7.2-.03-10.8Zm-5.96,9.78c-2.36.02-4.14-1.93-4.14-4.51,0-2.53,1.79-4.64,3.93-4.65,2.32,0,3.91,1.94,3.91,4.76s-1.28,4.39-3.7,4.4Z"/><path class="cls-8" d="m346.38,32.31c-1.87-.12-3.29.81-4.7,2.1,0-.37-.02-.54,0-.7.11-.8-.07-1.2-1.04-1.18-.88.02-1.12.26-1.11,1.13.04,5.23.04,10.47,0,15.7,0,.98.42,1.06,1.2,1.05.74-.01,1.27,0,1.22-1.02-.08-1.96-.02-3.93-.02-6.07,2.94,2.55,5.86,2.79,8.06.76,2.44-2.25,2.84-6.57.82-9.27-1.1-1.47-2.55-2.37-4.43-2.49Zm-.58,11.09c-2.49,0-3.87-1.68-3.87-4.72,0-2.72,1.35-4.34,3.64-4.37,2.25-.03,4.19,2.08,4.2,4.55,0,2.58-1.7,4.54-3.97,4.54Z"/><path class="cls-8" d="m301.93,41.88c-.01-4.44-.04-8.89.02-13.33.01-1.01-.43-1.03-1.2-1.03-.73,0-1.13.05-1.09.98.08,2.02.03,4.05.03,6.23-2.9-2.92-5.96-3.16-8.37-.82-2.57,2.51-2.62,7.16-.12,9.77,1.97,2.04,5.72,2.79,8.68-.35.04.36,0,.7.11.99.25.65.81.96,1.46,1.04.39.05.95.14,1.08-.37.14-.55.32-1.34-.13-1.67-.59-.43-.47-.92-.47-1.42Zm-6.02,1.53c-2.31,0-4.25-2.04-4.26-4.49-.01-2.42,1.91-4.6,4.03-4.6,2.37,0,4.01,1.93,4.01,4.7s-1.37,4.39-3.78,4.39Z"/><path class="cls-8" d="m394.89,57.31c-.27-.67-.49-1.12-1.37-1.11-.82.01-1.15.33-1.43,1.03-1.97,4.88-3.97,9.74-5.96,14.61-.2.48-.73,1.15-.44,1.43.46.45,1.27.15,1.92.16.48,0,.53-.44.67-.78.45-1.12.94-2.22,1.33-3.36.21-.62.53-.82,1.18-.81,1.8.04,3.6.06,5.4,0,.69-.02.93.28,1.13.84.37,1.01.87,1.98,1.19,3,.28.91.73,1.37,1.68,1.1,1.21.24,1.24-.21.83-1.17-2.08-4.97-4.12-9.96-6.14-14.95Zm.8,9.32c-1.67,0-3.35,0-5.23,0,1.03-2.55,1.98-4.92,3.01-7.48.96,2.43,1.86,4.7,2.75,6.97.22.57-.21.51-.54.51Z"/><path class="cls-8" d="m227.22,60.51c-3.56.21-6.24,3-6.27,6.54-.03,3.59,2.53,6.42,6.12,6.63,2.2.13,4.11-.6,5.48-2.42.18-.24.51-.52.33-.86-.24-.45-1.77-.43-2.13,0-1.09,1.33-2.52,1.76-4.15,1.4-1.6-.35-2.54-1.46-3.05-3-.2-.62-.09-.82.57-.81,1.46.03,2.93,0,4.4,0,1.47,0,2.93-.01,4.4,0,.53,0,.81-.06.86-.72.26-3.74-2.86-6.99-6.56-6.77Zm3.51,5.77c-1.08-.07-2.18-.02-3.26-.02s-2.18-.04-3.26.02c-.7.04-.89-.2-.74-.85.39-1.69,2.31-3.22,4.03-3.18,1.74.04,3.6,1.49,3.99,3.1.16.65.05.99-.75.94Z"/><path class="cls-8" d="m278.67,43.12c.19-.27.79-.69.25-.96-.62-.31-1.36-.98-2.11.09-.97,1.38-2.5,1.67-4.03,1.32-1.56-.36-2.56-1.49-3.03-3.03-.18-.6-.1-1,.74-.95,1.42.07,2.85.02,4.27.02,1.51,0,3.02-.03,4.52.01.61.02.78-.19.76-.79-.06-2.07-.75-3.85-2.4-5.15-2.5-1.97-6.03-1.81-8.39.31-2.24,2.02-2.72,5.77-1.07,8.48,2.22,3.65,8.04,4.02,10.48.65Zm-8.95-6.01c.42-1.72,2.23-3.1,4.08-3.04,1.81.06,3.66,1.59,3.96,3.24.1.53-.11.66-.59.65-1.17-.02-2.34,0-3.51,0-1.09,0-2.17-.04-3.26.01-.71.03-.85-.19-.69-.86Z"/><path class="cls-8" d="m387.78,44.03c.19.98,1.14,1.61,2.04,1.27.93-.36.64-1.48.4-1.78-.85-1.06-.44-2.21-.52-3.31-.07-1,.02-2.01-.02-3.01-.09-2.33-1.26-4.02-3.19-4.59-2.35-.7-4.51-.12-6.59,1.04-.73.41-.25.83-.09,1.25.18.47.44.63.94.29.72-.5,1.53-.84,2.39-1.04,2.33-.54,3.99.59,4.24,2.78.11.92-.13,1.13-1.03.93-1.94-.43-3.88-.53-5.71.49-1.69.94-2.32,2.32-1.89,4.18.35,1.5,1.96,2.77,3.55,2.88,2.06.14,3.88-.35,5.45-2.09.02.39.01.56.04.72Zm-.91-1.71c-.89.92-1.96,1.36-3.53,1.34-1.28,0-2.45-.89-2.56-2.21-.1-1.1.99-2.13,2.47-2.37.79-.13,1.59-.12,2.37.01.63.11,1.53,0,1.7.73.19.81.25,1.76-.45,2.49Z"/><path class="cls-8" d="m285.07,68.25c-.06-.87.02-1.76-.02-2.63-.11-2.58-1.45-4.37-3.55-4.86-2.1-.49-4.02-.04-5.9.93-.76.39-.85.73-.46,1.51.49.98.88.17,1.23.01.64-.28,1.26-.59,1.96-.76,2.88-.68,4.5.7,4.26,3.82-2.11-.59-4.16-.8-6.18.05-1.88.79-2.64,2.14-2.4,4.18.18,1.45,1.54,2.75,3.2,3.08,2.25.44,4.12-.33,5.82-1.91.02.31,0,.48.04.64.24,1.01,1.1,1.57,2.08,1.23.92-.32.56-1.37.36-1.68-.75-1.18-.37-2.4-.46-3.6Zm-3.01,2.46c-1.26,1.14-2.71,1.45-4.28,1.04-.94-.25-1.52-.97-1.6-2.01-.07-1.02.44-1.64,1.29-2.07.72-.37,1.49-.48,2.47-.37.24,0,.72-.13,1.07.03.56.25,1.52-.05,1.64.83.11.88.24,1.82-.58,2.56Z"/><path class="cls-8" d="m311.55,60.52c-3.58-.12-6.49,2.94-6.46,6.68.03,3.68,2.75,6.48,6.33,6.5,4.14.03,6.7-3.55,6.39-6.5.31-3.05-2.09-6.54-6.26-6.68Zm-.01,11.14c-2.32.04-4.06-1.87-4.07-4.45,0-2.52,1.92-4.77,4.05-4.71,2.18.06,4.03,2.17,4.04,4.62,0,2.54-1.74,4.51-4.02,4.54Z"/><path class="cls-8" d="m411.53,32.32c-3.56,0-6.4,2.95-6.39,6.62.01,3.69,2.72,6.45,6.34,6.45,3.26.36,6.52-2.65,6.49-6.42-.03-3.8-2.77-6.67-6.44-6.66Zm.06,11.09c-2.33,0-4.04-1.86-4.05-4.43-.01-2.61,1.76-4.66,4.03-4.66,2.2,0,4.19,2.22,4.13,4.62-.06,2.48-1.88,4.46-4.11,4.47Z"/><path class="cls-8" d="m214.71,32.32c-3.65-.02-6.27,2.8-6.41,6.55-.13,3.63,3.08,6.87,6.35,6.52,2.89.33,6.45-2.12,6.44-6.47,0-4.19-3.12-6.59-6.39-6.61Zm-.01,11.09c-2.31,0-4.09-1.9-4.1-4.42-.01-2.5,1.86-4.67,4.05-4.67,2.31,0,4.05,1.98,4.04,4.61,0,2.61-1.66,4.48-3.99,4.48Z"/></svg>